<svg xmlns="http://www.w3.org/2000/svg" xmlns:xlink="http://www.w3.org/1999/xlink" viewBox="0 0 512 512">
    <path d="m233.331 467.624c57.007 0 110.886-20.317 153.391-57.507l98.065 96.335c3.115 3.06 7.165 4.586 11.212 4.586 4.143 0 8.283-1.599 11.415-4.788 6.192-6.304 6.103-16.434-.201-22.626l-97.875-96.147c37.075-42.473 57.325-96.269 57.325-153.184 0-62.325-24.271-120.919-68.342-164.99-44.07-44.07-102.665-68.341-164.99-68.341-62.324 0-120.919 24.271-164.989 68.341-44.071 44.071-68.342 102.665-68.342 164.99s24.271 120.919 68.342 164.99c44.07 44.071 102.665 68.341 164.989 68.341zm-142.362-375.694c39.25-39.25 90.807-58.874 142.362-58.874 51.557 0 103.113 19.625 142.363 58.874 78.499 78.499 78.499 206.227 0 284.726-78.498 78.499-206.224 78.5-284.726 0-78.498-78.499-78.498-206.227.001-284.726z"/>
</svg>